.
 
http://www.scenetime.com    -   SceneTime [ We been having it ] !!!


How come you press harder on a remote control when you know the battery is dead? so you better seed to get speed ;)

        Seed back for speed


...................................NFO:.................................................*******************************************************************************
                 Spaceballs.1987.DvdRip.XviD.AC3 - UniQue.avi
*******************************************************************************

-------------------------------------------------------------------------------
                              General Information
-------------------------------------------------------------------------------


 __  __              _____                     
/\ \/\ \          __/\  __`\                   
\ \ \ \ \    ___ /\_\ \ \/\ \  __  __     __   
 \ \ \ \ \ /' _ `\/\ \ \ \ \ \/\ \/\ \  /'__`\ 
  \ \ \_\ \/\ \/\ \ \ \ \ \\'\\ \ \_\ \/\  __/ 
   \ \_____\ \_\ \_\ \_\ \___\_\ \____/\ \____\
    \/_____/\/_/\/_/\/_/\/__//_/\/___/  \/____/
                                               

-------------------------------------------------------------------------------
                                 Release Notes
-------------------------------------------------------------------------------
General
Complete name                    : Spaceballs.1987.DvdRip.XviD.AC3 - UniQue.avi
Encoder                          : MrXp
Format                           : AVI
Format/Info                      : Audio Video Interleave
File size                        : 1.30 GiB
Duration                         : 1h 32mn
Overall bit rate                 : 2 011 Kbps

Video
ID                               : 0
Format                           : MPEG-4 Visual
Format profile                   : Advanced Simple@L5
Format settings, BVOP            : 2
Format settings, QPel            : No
Format settings, GMC             : No warppoints
Format settings, Matrix          : Default (H.263)
Codec ID                         : XVID
Codec ID/Hint                    : XviD
Duration                         : 1h 32mn
Bit rate                         : 1 555 Kbps
Width                            : 640 pixels
Height                           : 256 pixels
Display aspect ratio             : 2.532
Frame rate                       : 25.000 fps
Color space                      : YUV
Chroma subsampling               : 4:2:0
Bit depth                        : 8 bits
Scan type                        : Progressive
Compression mode                 : Lossy
Bits/(Pixel*Frame)               : 0.380
Stream size                      : 1.00 GiB (77%)
Writing library                  : XviD 1.2.1 (UTC 2008-12-04)

Audio
ID                               : 1
Format                           : AC-3
Format/Info                      : Audio Coding 3
Mode extension                   : CM (complete main)
Codec ID                         : 2000
Duration                         : 1h 32mn
Bit rate mode                    : Constant
Bit rate                         : 448 Kbps
Channel(s)                       : 6 channels
Channel positions                : Front: L C R, Side: L R, LFE
Sampling rate                    : 48.0 KHz
Bit depth                        : 16 bits
Compression mode                 : Lossy
Stream size                      : 296 MiB (22%)
Alignment                        : Aligned on interleaves
Interleave, duration             : 64 ms (1.60 video frames)
Interleave, preload duration     : 192 ms
Title                            : Spaceballs.1987.DvdRip.XviD.AC3 - UniQue T01 
3_2ch 448Kbps DELAY 0ms_new

IMDB
 
http://www.imdb.com/title/tt0094012/

PLOT

Planet Spaceball's President Skroob sends Lord Dark Helmet to steal Planet Druidia's abundant supply of air to replenish their own, and only Lone Starr can stop them.


SCREENS

[IMG]http://i1102.photobucket.com/albums/g445/Tommy-UniQue/Screen%20Shots%20For%20Encodes/vlcsnap-2011-06-26-18h08m27s79.png[/IMG]
[IMG]http://i1102.photobucket.com/albums/g445/Tommy-UniQue/Screen%20Shots%20For%20Encodes/vlcsnap-2011-06-26-18h08m53s85.png[/IMG]
[IMG]http://i1102.photobucket.com/albums/g445/Tommy-UniQue/Screen%20Shots%20For%20Encodes/vlcsnap-2011-06-26-18h09m16s55.png[/IMG]
[IMG]http://i1102.photobucket.com/albums/g445/Tommy-UniQue/Screen%20Shots%20For%20Encodes/vlcsnap-2011-06-26-18h11m16s235.png[/IMG]

-------------------------------------------------------------------------------
Generated with Cool NFO Creator - http://fly.to/coolbeans
-------------------------------------------------------------------------------